<?xml version="1.0" encoding="UTF-8" standalone="no"?><svg xmlns="http://www.w3.org/2000/svg" xmlns:xlink="http://www.w3.org/1999/xlink" contentScriptType="application/ecmascript" contentStyleType="text/css" height="460px" preserveAspectRatio="none" style="width:1625px;height:460px;" version="1.1" viewBox="0 0 1625 460" width="1625px" zoomAndPan="magnify"><defs/><g><text fill="#000000" font-family="sans-serif" font-size="18" lengthAdjust="spacingAndGlyphs" textLength="492" x="583" y="16.708">Management Plane — from VPP counters to dashboards</text><text fill="#000000" font-family="sans-serif" font-size="18" lengthAdjust="spacingAndGlyphs" textLength="576" x="541" y="37.6611">(Java bridge reads the data plane over JNI, serves it northbound)</text><!--cluster NORTHBOUND — what operators & systems see--><polygon fill="#FFFFFF" points="22,202.9063,406,202.9063,413,225.2031,939,225.2031,939,306.9063,22,306.9063,22,202.9063" style="stroke: #000000; stroke-width: 2.0;"/><line style="stroke: #000000; stroke-width: 2.0;" x1="22" x2="413" y1="225.2031" y2="225.2031"/><text fill="#000000" font-family="sans-serif" font-size="14" font-weight="bold" lengthAdjust="spacingAndGlyphs" textLength="378" x="26" y="217.9014">NORTHBOUND — what operators &amp; systems see</text><!--cluster Management Bridge (Java process)--><polygon fill="#FFFFFF" points="322,65.9063,602,65.9063,609,88.2031,1082,88.2031,1082,169.9063,322,169.9063,322,65.9063" style="stroke: #000000; stroke-width: 2.0;"/><line style="stroke: #000000; stroke-width: 2.0;" x1="322" x2="609" y1="88.2031" y2="88.2031"/><text fill="#000000" font-family="sans-serif" font-size="14" font-weight="bold" lengthAdjust="spacingAndGlyphs" textLength="274" x="326" y="80.9014">Management Bridge (Java process)</text><!--cluster JNI native library (libvpp_nms_bridge.so) — C <-> Java shim--><polygon fill="#FFFFFF" points="963,202.9063,1430,202.9063,1437,225.2031,1486,225.2031,1486,306.9063,963,306.9063,963,202.9063" style="stroke: #000000; stroke-width: 2.0;"/><line style="stroke: #000000; stroke-width: 2.0;" x1="963" x2="1437" y1="225.2031" y2="225.2031"/><text fill="#000000" font-family="sans-serif" font-size="14" font-weight="bold" lengthAdjust="spacingAndGlyphs" textLength="461" x="967" y="217.9014">JNI native library (libvpp_nms_bridge.so) — C &lt;-&gt; Java shim</text><!--cluster VPP data plane — two client interfaces--><polygon fill="#FFFFFF" points="839,355.9063,1150,355.9063,1157,378.2031,1624,378.2031,1624,459.9063,839,459.9063,839,355.9063" style="stroke: #000000; stroke-width: 2.0;"/><line style="stroke: #000000; stroke-width: 2.0;" x1="839" x2="1157" y1="378.2031" y2="378.2031"/><text fill="#000000" font-family="sans-serif" font-size="14" font-weight="bold" lengthAdjust="spacingAndGlyphs" textLength="305" x="843" y="370.9014">VPP data plane — two client interfaces</text><!--entity NMS--><rect fill="#EEF2FF" height="52.5938" rx="4" ry="4" style="stroke: #000000; stroke-width: 1.5;" width="284" x="38" y="237.9063"/><text fill="#000000" font-family="sans-serif" font-size="14" lengthAdjust="spacingAndGlyphs" textLength="224" x="48" y="260.9014">Management system (NMS/OSS)</text><text fill="#000000" font-family="sans-serif" font-size="14" lengthAdjust="spacingAndGlyphs" textLength="264" x="48" y="277.1982">counter queries over an XML/HTTP API</text><!--entity ALARM--><rect fill="#EEF2FF" height="52.5938" rx="4" ry="4" style="stroke: #000000; stroke-width: 1.5;" width="319" x="603.5" y="237.9063"/><text fill="#000000" font-family="sans-serif" font-size="14" lengthAdjust="spacingAndGlyphs" textLength="46" x="613.5" y="260.9014">Alarms</text><text fill="#000000" font-family="sans-serif" font-size="14" lengthAdjust="spacingAndGlyphs" textLength="299" x="613.5" y="277.1982">faults &amp; threshold breaches (CPU, memory)</text><!--entity STORE--><rect fill="#EEF2FF" height="52.5938" rx="4" ry="4" style="stroke: #000000; stroke-width: 1.5;" width="211" x="357.5" y="237.9063"/><text fill="#000000" font-family="sans-serif" font-size="14" lengthAdjust="spacingAndGlyphs" textLength="152" x="367.5" y="260.9014">Analytics / event store</text><text fill="#000000" font-family="sans-serif" font-size="14" lengthAdjust="spacingAndGlyphs" textLength="191" x="367.5" y="277.1982">history, search, dashboards</text><!--entity REPORTERS--><rect fill="#FFFFFF" height="52.5938" rx="4" ry="4" style="stroke: #000000; stroke-width: 1.5;" width="292" x="338" y="100.9063"/><text fill="#000000" font-family="sans-serif" font-size="14" lengthAdjust="spacingAndGlyphs" textLength="241" x="348" y="123.9014">Stats client + per-feature reporters</text><text fill="#000000" font-family="sans-serif" font-size="14" lengthAdjust="spacingAndGlyphs" textLength="272" x="348" y="140.1982">ACL · NAT · IPsec · ngfw-decision · Snort</text><!--entity LISTENERS--><rect fill="#FFFFFF" height="52.5938" rx="4" ry="4" style="stroke: #000000; stroke-width: 1.5;" width="195" x="665.5" y="100.9063"/><text fill="#000000" font-family="sans-serif" font-size="14" lengthAdjust="spacingAndGlyphs" textLength="101" x="675.5" y="123.9014">Alarm listeners</text><text fill="#000000" font-family="sans-serif" font-size="14" lengthAdjust="spacingAndGlyphs" textLength="175" x="675.5" y="140.1982">CPU · memory · threshold</text><!--entity RESET--><rect fill="#FFFFFF" height="52.5938" rx="4" ry="4" style="stroke: #000000; stroke-width: 1.5;" width="170" x="896" y="100.9063"/><text fill="#000000" font-family="sans-serif" font-size="14" lengthAdjust="spacingAndGlyphs" textLength="150" x="906" y="123.9014">Counter reset / purge</text><text fill="#000000" font-family="sans-serif" font-size="14" lengthAdjust="spacingAndGlyphs" textLength="129" x="906" y="140.1982">+ rolling-file logger</text><!--entity JNIREAD--><rect fill="#FAF5FF" height="52.5938" rx="4" ry="4" style="stroke: #000000; stroke-width: 1.5;" width="324" x="979" y="237.9063"/><text fill="#000000" font-family="sans-serif" font-size="14" lengthAdjust="spacingAndGlyphs" textLength="187" x="989" y="260.9014">connectStats · listCounters</text><text fill="#000000" font-family="sans-serif" font-size="14" lengthAdjust="spacingAndGlyphs" textLength="304" x="989" y="277.1982">getSimpleCounter · dumpCombinedCounter</text><!--entity JNICLEAR--><rect fill="#FEE2E2" height="36.2969" rx="4" ry="4" style="stroke: #000000; stroke-width: 1.5;" width="132" x="1338" y="246.4063"/><text fill="#000000" font-family="sans-serif" font-size="14" lengthAdjust="spacingAndGlyphs" textLength="112" x="1348" y="269.4014">clearAllCounters</text><!--entity STATSEG--><rect fill="#F0FDFA" height="52.5938" rx="4" ry="4" style="stroke: #000000; stroke-width: 1.5;" width="376" x="855" y="390.9063"/><text fill="#000000" font-family="sans-serif" font-size="14" lengthAdjust="spacingAndGlyphs" textLength="223" x="865" y="413.9014">Stats segment (shared memory)</text><text fill="#000000" font-family="sans-serif" font-size="14" lengthAdjust="spacingAndGlyphs" textLength="356" x="865" y="430.1982">read-only counters: packets/bytes/verdicts/rule hits</text><!--entity BINAPI--><rect fill="#FFF1F2" height="52.5938" rx="4" ry="4" style="stroke: #000000; stroke-width: 1.5;" width="341" x="1266.5" y="390.9063"/><text fill="#000000" font-family="sans-serif" font-size="14" lengthAdjust="spacingAndGlyphs" textLength="118" x="1276.5" y="413.9014">Binary API socket</text><text fill="#000000" font-family="sans-serif" font-size="14" lengthAdjust="spacingAndGlyphs" textLength="321" x="1276.5" y="430.1982">commands: e.g. clear counters (request/reply)</text><path d="M1059.71,390.6663 C1076.84,364.2663 1103.48,323.2263 1121.55,295.3763 " fill="none" style="stroke: #A80036; stroke-width: 1.0;"/><polygon fill="#A80036" points="1124.38,291.0263,1116.1271,296.4012,1121.6596,295.2214,1122.8394,300.7539,1124.38,291.0263" style="stroke: #A80036; stroke-width: 1.0;"/><text fill="#000000" font-family="sans-serif" font-size="13" lengthAdjust="spacingAndGlyphs" textLength="89" x="1104" y="335.9731">read counters</text><path d="M1079.84,237.8663 C1040.37,222.5963 987.52,204.3662 939,194.9063 C811.84,170.1063 775.56,200.5562 648,177.9063 C618.92,172.7462 587.72,164.1363 560.42,155.5363 " fill="none" style="stroke: #A80036; stroke-width: 1.0;"/><polygon fill="#A80036" points="555.37,153.9262,562.7327,160.4677,560.1344,155.4429,565.1593,152.8446,555.37,153.9262" style="stroke: #A80036; stroke-width: 1.0;"/><path d="M426.46,153.9563 C373.91,177.2963 296.41,211.7163 242.39,235.7063 " fill="none" style="stroke: #A80036; stroke-width: 1.0;"/><polygon fill="#A80036" points="237.56,237.8463,247.4089,237.852,242.1302,235.8182,244.164,230.5396,237.56,237.8463" style="stroke: #A80036; stroke-width: 1.0;"/><path d="M480,154.1162 C476.53,176.4463 471.49,208.8463 467.8,232.5663 " fill="none" style="stroke: #A80036; stroke-width: 1.0;"/><polygon fill="#A80036" points="466.98,237.7963,472.2966,229.5057,467.7371,232.8539,464.3888,228.2944,466.98,237.7963" style="stroke: #A80036; stroke-width: 1.0;"/><path d="M763,154.1162 C763,176.4463 763,208.8463 763,232.5663 " fill="none" style="stroke: #A80036; stroke-width: 1.0;"/><polygon fill="#A80036" points="763,237.7963,767,228.7963,763,232.7963,759,228.7963,763,237.7963" style="stroke: #A80036; stroke-width: 1.0;"/><path d="M1407.72,282.4363 C1413.19,307.4462 1423.47,354.5063 1430.28,385.6563 " fill="none" style="stroke: #A80036; stroke-width: 1.0;"/><polygon fill="#A80036" points="1431.43,390.8963,1433.4362,381.2539,1430.3726,386.0093,1425.6171,382.9457,1431.43,390.8963" style="stroke: #A80036; stroke-width: 1.0;"/><text fill="#000000" font-family="sans-serif" font-size="13" lengthAdjust="spacingAndGlyphs" textLength="110" x="1420" y="335.9731">clear (command)</text><path d="M1066.01,133.3763 C1137.07,140.1963 1239.57,156.4163 1321,194.9063 C1345.45,206.4663 1368.78,226.8463 1384.45,242.3863 " fill="none" style="stroke: #A80036; stroke-width: 1.0;"/><polygon fill="#A80036" points="1388.26,246.2163,1384.7616,237.0097,1384.7388,242.6665,1379.0819,242.6437,1388.26,246.2163" style="stroke: #A80036; stroke-width: 1.0;"/></g></svg>