<?xml version="1.0" encoding="UTF-8" standalone="no"?><svg xmlns="http://www.w3.org/2000/svg" xmlns:xlink="http://www.w3.org/1999/xlink" contentScriptType="application/ecmascript" contentStyleType="text/css" height="665px" preserveAspectRatio="none" style="width:1616px;height:665px;" version="1.1" viewBox="0 0 1616 665" width="1616px" zoomAndPan="magnify"><defs/><g><text fill="#000000" font-family="sans-serif" font-size="18" lengthAdjust="spacingAndGlyphs" textLength="591" x="516.5" y="16.708">SASE URL Filtering Engine - Distributed Microservices Architecture</text><!--MD5=[79a439086b036a57b90a01d7b2f8bbd1]
entity admin--><rect fill="#FEFECE" height="36.2969" style="stroke: #000000; stroke-width: 1.5;" width="179" x="6" y="53.4531"/><text fill="#000000" font-family="sans-serif" font-size="14" lengthAdjust="spacingAndGlyphs" textLength="159" x="16" y="76.4482">Enterprise Admin / Ops</text><!--MD5=[99f3cfe8ce18ee9cb444babb539f6fb5]
entity CM--><rect fill="#FEFECE" height="85.1875" style="stroke: #A80036; stroke-width: 1.5;" width="187" x="907" y="28.9531"/><rect fill="#FEFECE" height="5" style="stroke: #A80036; stroke-width: 1.5;" width="10" x="902" y="33.9531"/><rect fill="#FEFECE" height="5" style="stroke: #A80036; stroke-width: 1.5;" width="10" x="902" y="104.1406"/><text fill="#000000" font-family="sans-serif" font-size="14" lengthAdjust="spacingAndGlyphs" textLength="149" x="917" y="51.9482">Central Manager (CM)</text><text fill="#000000" font-family="sans-serif" font-size="14" lengthAdjust="spacingAndGlyphs" textLength="140" x="917" y="68.2451">- HA &amp; Cluster Mgmt</text><text fill="#000000" font-family="sans-serif" font-size="14" lengthAdjust="spacingAndGlyphs" textLength="167" x="917" y="84.542">- Signature ID Generator</text><text fill="#000000" font-family="sans-serif" font-size="14" lengthAdjust="spacingAndGlyphs" textLength="166" x="917" y="100.8389">(DPI Signature Mapping)</text><!--MD5=[1035515eb14b5228f153ae78bdf69e99]
entity PM--><rect fill="#FEFECE" height="101.4844" style="stroke: #A80036; stroke-width: 1.5;" width="193" x="492" y="205.9531"/><rect fill="#FEFECE" height="5" style="stroke: #A80036; stroke-width: 1.5;" width="10" x="487" y="210.9531"/><rect fill="#FEFECE" height="5" style="stroke: #A80036; stroke-width: 1.5;" width="10" x="487" y="297.4375"/><text fill="#000000" font-family="sans-serif" font-size="14" lengthAdjust="spacingAndGlyphs" textLength="173" x="502" y="228.9482">Provisioning Module (PM)</text><text fill="#000000" font-family="sans-serif" font-size="14" lengthAdjust="spacingAndGlyphs" textLength="36" x="502" y="245.2451">(Java)</text><text fill="#000000" font-family="sans-serif" font-size="14" lengthAdjust="spacingAndGlyphs" textLength="170" x="502" y="261.542">- Enterprise/Group/Conn</text><text fill="#000000" font-family="sans-serif" font-size="14" lengthAdjust="spacingAndGlyphs" textLength="99" x="502" y="277.8389">- Policy: WL/BL</text><text fill="#000000" font-family="sans-serif" font-size="14" lengthAdjust="spacingAndGlyphs" textLength="110" x="502" y="294.1357">- URLs provision</text><!--MD5=[d4ed3c722c1c732b4c88e00ff9d6eb95]
entity CSI--><rect fill="#FEFECE" height="101.4844" style="stroke: #A80036; stroke-width: 1.5;" width="221" x="1027" y="205.9531"/><rect fill="#FEFECE" height="5" style="stroke: #A80036; stroke-width: 1.5;" width="10" x="1022" y="210.9531"/><rect fill="#FEFECE" height="5" style="stroke: #A80036; stroke-width: 1.5;" width="10" x="1022" y="297.4375"/><text fill="#000000" font-family="sans-serif" font-size="14" lengthAdjust="spacingAndGlyphs" textLength="201" x="1037" y="228.9482">Core Service Integration (CSI)</text><text fill="#000000" font-family="sans-serif" font-size="14" lengthAdjust="spacingAndGlyphs" textLength="36" x="1037" y="245.2451">(Java)</text><text fill="#000000" font-family="sans-serif" font-size="14" lengthAdjust="spacingAndGlyphs" textLength="124" x="1037" y="261.542">- User onboarding</text><text fill="#000000" font-family="sans-serif" font-size="14" lengthAdjust="spacingAndGlyphs" textLength="99" x="1037" y="277.8389">- SUPI/MSISDN</text><text fill="#000000" font-family="sans-serif" font-size="14" lengthAdjust="spacingAndGlyphs" textLength="153" x="1037" y="294.1357">- Assigned IP mapping</text><!--MD5=[7bb062a97d285037264f96dcd263a7f3]
entity MRI--><rect fill="#FEFECE" height="101.4844" style="stroke: #A80036; stroke-width: 1.5;" width="256" x="735.5" y="205.9531"/><rect fill="#FEFECE" height="5" style="stroke: #A80036; stroke-width: 1.5;" width="10" x="730.5" y="210.9531"/><rect fill="#FEFECE" height="5" style="stroke: #A80036; stroke-width: 1.5;" width="10" x="730.5" y="297.4375"/><text fill="#000000" font-family="sans-serif" font-size="14" lengthAdjust="spacingAndGlyphs" textLength="236" x="745.5" y="228.9482">Malicious Resource Indicator (MRI)</text><text fill="#000000" font-family="sans-serif" font-size="14" lengthAdjust="spacingAndGlyphs" textLength="36" x="745.5" y="245.2451">(Java)</text><text fill="#000000" font-family="sans-serif" font-size="14" lengthAdjust="spacingAndGlyphs" textLength="155" x="745.5" y="261.542">- Fetch malicious URLs</text><text fill="#000000" font-family="sans-serif" font-size="14" lengthAdjust="spacingAndGlyphs" textLength="137" x="745.5" y="277.8389">- Categorize threats</text><text fill="#000000" font-family="sans-serif" font-size="14" lengthAdjust="spacingAndGlyphs" textLength="163" x="745.5" y="294.1357">- Sources: URLHaus etc</text><!--MD5=[59ceac3e1bb6f0ece56988f2042cffc2]
entity Kafka--><rect fill="#FEFECE" height="52.5938" style="stroke: #A80036; stroke-width: 1.5;" width="151" x="441" y="403.4531"/><rect fill="#FEFECE" height="5" style="stroke: #A80036; stroke-width: 1.5;" width="10" x="436" y="408.4531"/><rect fill="#FEFECE" height="5" style="stroke: #A80036; stroke-width: 1.5;" width="10" x="436" y="446.0469"/><text fill="#000000" font-family="sans-serif" font-size="14" lengthAdjust="spacingAndGlyphs" textLength="90" x="451" y="426.4482">Kafka Cluster</text><text fill="#000000" font-family="sans-serif" font-size="14" lengthAdjust="spacingAndGlyphs" textLength="131" x="451" y="442.7451">(Policy &amp; Data bus)</text><!--MD5=[2e1a3fbbe56eb4379dc0cf856057a954]
entity Aero--><path d="M1004,408.9531 C1004,398.9531 1088.5,398.9531 1088.5,398.9531 C1088.5,398.9531 1173,398.9531 1173,408.9531 L1173,450.5469 C1173,460.5469 1088.5,460.5469 1088.5,460.5469 C1088.5,460.5469 1004,460.5469 1004,450.5469 L1004,408.9531 " fill="#FEFECE" style="stroke: #000000; stroke-width: 1.5;"/><path d="M1004,408.9531 C1004,418.9531 1088.5,418.9531 1088.5,418.9531 C1088.5,418.9531 1173,418.9531 1173,408.9531 " fill="none" style="stroke: #000000; stroke-width: 1.5;"/><text fill="#000000" font-family="sans-serif" font-size="14" lengthAdjust="spacingAndGlyphs" textLength="122" x="1014" y="435.9482">Aerospike Cluster</text><text fill="#000000" font-family="sans-serif" font-size="14" lengthAdjust="spacingAndGlyphs" textLength="149" x="1014" y="452.2451">(Distributed KV Store)</text><!--MD5=[ea87969fc35f1ca5453e0a1ca338bac3]
entity DP--><rect fill="#FEFECE" height="101.4844" style="stroke: #A80036; stroke-width: 1.5;" width="199" x="964" y="552.9531"/><rect fill="#FEFECE" height="5" style="stroke: #A80036; stroke-width: 1.5;" width="10" x="959" y="557.9531"/><rect fill="#FEFECE" height="5" style="stroke: #A80036; stroke-width: 1.5;" width="10" x="959" y="644.4375"/><text fill="#000000" font-family="sans-serif" font-size="14" lengthAdjust="spacingAndGlyphs" textLength="179" x="974" y="575.9482">SASEURLFILTER (SASEDP)</text><text fill="#000000" font-family="sans-serif" font-size="14" lengthAdjust="spacingAndGlyphs" textLength="59" x="974" y="592.2451">(C/C++)</text><text fill="#000000" font-family="sans-serif" font-size="14" lengthAdjust="spacingAndGlyphs" textLength="133" x="974" y="608.542">- Dataplane (DPDK)</text><text fill="#000000" font-family="sans-serif" font-size="14" lengthAdjust="spacingAndGlyphs" textLength="116" x="974" y="624.8389">- URL Filter + DPI</text><text fill="#000000" font-family="sans-serif" font-size="14" lengthAdjust="spacingAndGlyphs" textLength="151" x="974" y="641.1357">- Allow/Block Decision</text><path d="M1198.5,575.9531 L1198.5,599.4531 L1163.21,603.4531 L1198.5,607.4531 L1198.5,631.3516 A0,0 0 0 0 1198.5,631.3516 L1390.5,631.3516 A0,0 0 0 0 1390.5,631.3516 L1390.5,585.9531 L1380.5,575.9531 L1198.5,575.9531 A0,0 0 0 0 1198.5,575.9531 " fill="#FBFB77" style="stroke: #A80036; stroke-width: 1.0;"/><path d="M1380.5,575.9531 L1380.5,585.9531 L1390.5,585.9531 L1380.5,575.9531 " fill="#FBFB77" style="stroke: #A80036; stroke-width: 1.0;"/><text fill="#000000" font-family="sans-serif" font-size="13" lengthAdjust="spacingAndGlyphs" textLength="171" x="1204.5" y="593.02">DP makes decisions locally</text><text fill="#000000" font-family="sans-serif" font-size="13" lengthAdjust="spacingAndGlyphs" textLength="148" x="1204.5" y="608.1528">(no runtime REST calls)</text><text fill="#000000" font-family="sans-serif" font-size="13" lengthAdjust="spacingAndGlyphs" textLength="143" x="1204.5" y="623.2856">Data pushed via Kafka</text><!--MD5=[085aa51fa3eb8fdeae09ab6b950c0ceb]
link admin to PM--><path d="M141.44,89.5031 C219.79,118.5931 381.07,178.4531 486.97,217.7631 " fill="none" id="admin-&gt;PM" style="stroke: #A80036; stroke-width: 1.0;"/><polygon fill="#A80036" points="491.97,219.6231,484.9291,212.7365,487.2837,217.88,482.1401,220.2346,491.97,219.6231" style="stroke: #A80036; stroke-width: 1.0;"/><text fill="#000000" font-family="sans-serif" font-size="13" lengthAdjust="spacingAndGlyphs" textLength="155" x="373.5" y="157.02">Create Enterprise/Group</text><text fill="#000000" font-family="sans-serif" font-size="13" lengthAdjust="spacingAndGlyphs" textLength="89" x="406.5" y="172.1528">WL/BL Policies</text><!--MD5=[a536c9422ff0dd7bac7167547aacbe34]
link PM to Aero--><path d="M649.18,307.0231 C683.7,334.8031 721.92,364.7431 731.5,368.9531 C817.18,406.6331 923.99,420.7831 998.35,426.0231 " fill="none" id="PM-&gt;Aero" style="stroke: #A80036; stroke-width: 1.0;"/><polygon fill="#A80036" points="1003.64,426.3831,994.9347,421.7768,998.6517,426.0411,994.3874,429.7581,1003.64,426.3831" style="stroke: #A80036; stroke-width: 1.0;"/><text fill="#000000" font-family="sans-serif" font-size="13" lengthAdjust="spacingAndGlyphs" textLength="135" x="732.5" y="357.52">Store policy datasets</text><!--MD5=[9ac6989b58b18c9edb948af96b8368d1]
link CSI to Aero--><path d="M1219.86,307.2031 C1239.98,325.6731 1252.05,347.4031 1237.5,368.9531 C1223.58,389.5531 1201.29,403.0831 1178.14,411.9731 " fill="none" id="CSI-&gt;Aero" style="stroke: #A80036; stroke-width: 1.0;"/><polygon fill="#A80036" points="1173.19,413.8031,1183.0175,414.4507,1177.8827,412.0772,1180.2561,406.9424,1173.19,413.8031" style="stroke: #A80036; stroke-width: 1.0;"/><text fill="#000000" font-family="sans-serif" font-size="13" lengthAdjust="spacingAndGlyphs" textLength="127" x="1244.5" y="357.52">Store user datasets</text><!--MD5=[5c56b966d5a0cbcb7ddc6f06d5076bc6]
link MRI to Aero--><path d="M868.28,307.1931 C872.74,328.6731 881.26,352.5731 897.5,368.9531 C924.21,395.8831 962.86,410.7631 998.41,418.9631 " fill="none" id="MRI-&gt;Aero" style="stroke: #A80036; stroke-width: 1.0;"/><polygon fill="#A80036" points="1003.63,420.1231,995.7157,414.2611,998.7497,419.0354,993.9754,422.0695,1003.63,420.1231" style="stroke: #A80036; stroke-width: 1.0;"/><text fill="#000000" font-family="sans-serif" font-size="13" lengthAdjust="spacingAndGlyphs" textLength="159" x="898.5" y="357.52">Store malicious datasets</text><!--MD5=[f856084c033f6dd7e5ea0fdb8ab09a80]
link PM to Kafka--><path d="M491.88,284.3431 C420.79,304.5831 335.64,329.9931 330.5,336.9531 C297.55,381.5831 371.54,405.8131 435.74,418.0331 " fill="none" id="PM-&gt;Kafka" style="stroke: #A80036; stroke-width: 1.0;"/><polygon fill="#A80036" points="440.73,418.9631,432.6135,413.3844,435.8143,418.0486,431.1502,421.2495,440.73,418.9631" style="stroke: #A80036; stroke-width: 1.0;"/><text fill="#000000" font-family="sans-serif" font-size="13" lengthAdjust="spacingAndGlyphs" textLength="141" x="331.5" y="357.52">Publish policy updates</text><!--MD5=[850329b8fb7220c5c173fd28f1b9a2a3]
link CSI to Kafka--><path d="M1109.76,307.1031 C1094.17,333.1331 1075.32,361.1931 1062.5,368.9531 C986.17,415.1331 729.78,425.8531 597.29,428.2931 " fill="none" id="CSI-&gt;Kafka" style="stroke: #A80036; stroke-width: 1.0;"/><polygon fill="#A80036" points="592.24,428.3831,601.3072,432.2283,597.2393,428.2974,601.1701,424.2294,592.24,428.3831" style="stroke: #A80036; stroke-width: 1.0;"/><text fill="#000000" font-family="sans-serif" font-size="13" lengthAdjust="spacingAndGlyphs" textLength="133" x="1090.5" y="357.52">Publish user updates</text><!--MD5=[f23814ffb5ed7c29f671e1e2571301b9]
link MRI to Kafka--><path d="M735.2,298.6631 C724.19,301.6631 713.18,304.4731 702.5,306.9531 C661.07,316.5631 541.11,304.6131 513.5,336.9531 C499.34,353.5331 501.13,378.5731 505.88,398.3431 " fill="none" id="MRI-&gt;Kafka" style="stroke: #A80036; stroke-width: 1.0;"/><polygon fill="#A80036" points="507.15,403.2531,508.7803,393.5401,505.9036,398.411,501.0328,395.5343,507.15,403.2531" style="stroke: #A80036; stroke-width: 1.0;"/><text fill="#000000" font-family="sans-serif" font-size="13" lengthAdjust="spacingAndGlyphs" textLength="165" x="514.5" y="357.52">Publish malicious updates</text><!--MD5=[c33677e1486edfd77e5c4b381b84c591]
link Kafka to DP--><path d="M592.27,454.7131 C687.55,484.5831 851.62,536.0231 958.83,569.6331 " fill="none" id="Kafka-&gt;DP" style="stroke: #A80036; stroke-width: 1.0;"/><polygon fill="#A80036" points="963.89,571.2231,956.5039,564.7081,959.1201,569.7236,954.1047,572.3399,963.89,571.2231" style="stroke: #A80036; stroke-width: 1.0;"/><text fill="#000000" font-family="sans-serif" font-size="13" lengthAdjust="spacingAndGlyphs" textLength="111" x="844" y="504.02">Subscribe &amp; sync</text><text fill="#000000" font-family="sans-serif" font-size="13" lengthAdjust="spacingAndGlyphs" textLength="186" x="806.5" y="519.1528">(User + Policy + Threat intel)</text><!--MD5=[2bbd59ecb08e893705e1b08f59031998]
link CM to PM--><path d="M906.83,88.3231 C854.36,99.4631 788.77,117.2431 734.5,143.9531 C703.4,159.2631 672.39,181.6731 647,202.3831 " fill="none" id="CM-&gt;PM" style="stroke: #A80036; stroke-width: 1.0;"/><polygon fill="#A80036" points="642.98,205.6931,652.4723,203.0669,646.8421,202.5176,647.3914,196.8875,642.98,205.6931" style="stroke: #A80036; stroke-width: 1.0;"/><text fill="#000000" font-family="sans-serif" font-size="13" lengthAdjust="spacingAndGlyphs" textLength="165" x="735.5" y="164.52">HA / service orchestration</text><!--MD5=[54930c5c9217b1fe7f3ed618ce00d713]
link CM to CSI--><path d="M1031.59,113.9831 C1051,139.9131 1076.2,173.5631 1097.14,201.5431 " fill="none" id="CM-&gt;CSI" style="stroke: #A80036; stroke-width: 1.0;"/><polygon fill="#A80036" points="1100.2,205.6331,1098,196.0331,1097.2,201.6331,1091.6,200.8331,1100.2,205.6331" style="stroke: #A80036; stroke-width: 1.0;"/><text fill="#000000" font-family="sans-serif" font-size="13" lengthAdjust="spacingAndGlyphs" textLength="116" x="1077.5" y="164.52">HA / orchestration</text><!--MD5=[d74ca014fa490343cb52d62f474a8d33]
link CM to MRI--><path d="M956.58,114.0631 C947.53,123.5131 938.36,133.7831 930.5,143.9531 C916.81,161.6631 903.68,182.3731 892.73,201.1031 " fill="none" id="CM-&gt;MRI" style="stroke: #A80036; stroke-width: 1.0;"/><polygon fill="#A80036" points="889.99,205.8131,897.9693,200.0398,892.5014,201.4896,891.0516,196.0217,889.99,205.8131" style="stroke: #A80036; stroke-width: 1.0;"/><text fill="#000000" font-family="sans-serif" font-size="13" lengthAdjust="spacingAndGlyphs" textLength="116" x="931.5" y="164.52">HA / orchestration</text><!--MD5=[783e085d3d3d58503151a69a319e3c3f]
link CM to Kafka--><path d="M906.97,79.2031 C745.32,92.7931 423.36,128.9931 344.5,205.9531 C291.78,257.4031 270.45,309.9131 314.5,368.9531 C329.49,389.0431 386.32,404.8231 435.9,415.1431 " fill="none" id="CM-&gt;Kafka" style="stroke: #A80036; stroke-width: 1.0;"/><polygon fill="#A80036" points="440.98,416.1831,432.9616,410.4643,436.081,415.1833,431.3619,418.3027,440.98,416.1831" style="stroke: #A80036; stroke-width: 1.0;"/><text fill="#000000" font-family="sans-serif" font-size="13" lengthAdjust="spacingAndGlyphs" textLength="128" x="345.5" y="261.02">Cluster coordination</text><!--MD5=[b057b6c0181b4e4ecfc1e6493748f0f9]
link CM to Aero--><path d="M1094.11,96.2031 C1129.64,107.5731 1169.46,123.2931 1202.5,143.9531 C1249.22,173.1631 1377.34,328.5631 1380.5,336.9531 C1385.51,350.2631 1389.49,357.9331 1380.5,368.9531 C1355.26,399.9131 1254.29,415.3531 1178.1,422.7331 " fill="none" id="CM-&gt;Aero" style="stroke: #A80036; stroke-width: 1.0;"/><polygon fill="#A80036" points="1173.12,423.2031,1182.4566,426.3381,1178.0978,422.7324,1181.7035,418.3737,1173.12,423.2031" style="stroke: #A80036; stroke-width: 1.0;"/><text fill="#000000" font-family="sans-serif" font-size="13" lengthAdjust="spacingAndGlyphs" textLength="128" x="1357.5" y="261.02">Cluster coordination</text><!--MD5=[60ce3ed614afa0502be2666eaa0e582b]
link CM to DP--><path d="M1094.03,84.2131 C1223.28,102.5931 1446.1,142.7331 1494.5,205.9531 C1521.79,241.5931 1514.95,266.9931 1494.5,306.9531 C1458.94,376.4231 1276.53,485.9731 1160.7,550.3631 " fill="none" id="CM-&gt;DP" style="stroke: #A80036; stroke-width: 1.0;"/><polygon fill="#A80036" points="1156.27,552.8231,1166.08,551.949,1160.6408,550.3949,1162.1948,544.9557,1156.27,552.8231" style="stroke: #A80036; stroke-width: 1.0;"/><text fill="#000000" font-family="sans-serif" font-size="13" lengthAdjust="spacingAndGlyphs" textLength="68" x="1504.5" y="350.02">Cluster HA</text><text fill="#000000" font-family="sans-serif" font-size="13" lengthAdjust="spacingAndGlyphs" textLength="132" x="1472.5" y="365.1528">Signature IDs for DPI</text><!--MD5=[e4b47a983fc6469532f66bd60a74717f]
@startuml
title SASE URL Filtering Engine - Distributed Microservices Architecture

skinparam componentStyle rectangle
skinparam shadowing false

rectangle "Enterprise Admin / Ops" as admin

component "Central Manager (CM)\n- HA & Cluster Mgmt\n- Signature ID Generator\n(DPI Signature Mapping)" as CM

component "Provisioning Module (PM)\n(Java)\n- Enterprise/Group/Conn\n- Policy: WL/BL\n- URLs provision" as PM

component "Core Service Integration (CSI)\n(Java)\n- User onboarding\n- SUPI/MSISDN\n- Assigned IP mapping" as CSI

component "Malicious Resource Indicator (MRI)\n(Java)\n- Fetch malicious URLs\n- Categorize threats\n- Sources: URLHaus etc" as MRI

component "Kafka Cluster\n(Policy & Data bus)" as Kafka

database "Aerospike Cluster\n(Distributed KV Store)" as Aero

component "SASEURLFILTER (SASEDP)\n(C/C++)\n- Dataplane (DPDK)\n- URL Filter + DPI\n- Allow/Block Decision" as DP

admin - -> PM : Create Enterprise/Group\nWL/BL Policies

PM - -> Aero : Store policy datasets
CSI - -> Aero : Store user datasets
MRI - -> Aero : Store malicious datasets

PM - -> Kafka : Publish policy updates
CSI - -> Kafka : Publish user updates
MRI - -> Kafka : Publish malicious updates

Kafka - -> DP : Subscribe & sync\n(User + Policy + Threat intel)

CM - -> PM : HA / service orchestration
CM - -> CSI : HA / orchestration
CM - -> MRI : HA / orchestration
CM - -> Kafka : Cluster coordination
CM - -> Aero : Cluster coordination

CM - -> DP : Cluster HA\nSignature IDs for DPI

note right of DP
DP makes decisions locally
(no runtime REST calls)
Data pushed via Kafka
end note

@enduml

PlantUML version 1.2020.02(Sun Mar 01 10:22:07 UTC 2020)
(GPL source distribution)
Java Runtime: OpenJDK Runtime Environment
JVM: OpenJDK 64-Bit Server VM
Java Version: 17.0.17+10
Operating System: Linux
Default Encoding: UTF-8
Language: en
Country: null
--></g></svg>