<?xml version="1.0" encoding="UTF-8" standalone="no"?><svg xmlns="http://www.w3.org/2000/svg" xmlns:xlink="http://www.w3.org/1999/xlink" contentScriptType="application/ecmascript" contentStyleType="text/css" height="253px" preserveAspectRatio="none" style="width:627px;height:253px;" version="1.1" viewBox="0 0 627 253" width="627px" zoomAndPan="magnify"><defs/><g><text fill="#000000" font-family="sans-serif" font-size="18" lengthAdjust="spacingAndGlyphs" textLength="379" x="132.5" y="16.708">Arrays and Pointers (Address &amp; Arithmetic)</text><rect fill="#FEFECE" height="98.1406" style="stroke: #A80036; stroke-width: 1.5;" width="155" x="6" y="153.9531"/><text fill="#000000" font-family="sans-serif" font-size="12" lengthAdjust="spacingAndGlyphs" textLength="54" x="56.5" y="167.0918">A : int[5]</text><text fill="#000000" font-family="sans-serif" font-size="12" lengthAdjust="spacingAndGlyphs" textLength="141" x="13" y="181.0605">base = &amp;A[0] = 0x400</text><line style="stroke: #A80036; stroke-width: 1.5;" x1="7" x2="160" y1="185.8906" y2="185.8906"/><text fill="#000000" font-family="sans-serif" font-size="10" lengthAdjust="spacingAndGlyphs" textLength="98" x="12" y="199.1729">"A[0] = 2  @0x400"</text><text fill="#000000" font-family="sans-serif" font-size="10" lengthAdjust="spacingAndGlyphs" textLength="98" x="12" y="210.8135">"A[1] = 4  @0x404"</text><text fill="#000000" font-family="sans-serif" font-size="10" lengthAdjust="spacingAndGlyphs" textLength="98" x="12" y="222.4541">"A[2] = 5  @0x408"</text><text fill="#000000" font-family="sans-serif" font-size="10" lengthAdjust="spacingAndGlyphs" textLength="100" x="12" y="234.0947">"A[3] = 8  @0x40C"</text><text fill="#000000" font-family="sans-serif" font-size="10" lengthAdjust="spacingAndGlyphs" textLength="98" x="12" y="245.7354">"A[4] = 1  @0x410"</text><rect fill="#FEFECE" height="47.9375" style="stroke: #A80036; stroke-width: 1.5;" width="101" x="246" y="28.9531"/><text fill="#000000" font-family="sans-serif" font-size="12" lengthAdjust="spacingAndGlyphs" textLength="42" x="275.5" y="42.0918">p : int*</text><text fill="#000000" font-family="sans-serif" font-size="12" lengthAdjust="spacingAndGlyphs" textLength="87" x="253" y="56.0605">value = &amp;A[0]</text><line style="stroke: #A80036; stroke-width: 1.5;" x1="247" x2="346" y1="60.8906" y2="60.8906"/><polygon fill="#FBFB77" points="231,182.9531,231,223.2188,356,223.2188,356,192.9531,346,182.9531,231,182.9531" style="stroke: #A80036; stroke-width: 1.0;"/><polygon fill="#FBFB77" points="231,182.9531,231,198.9531,161.1,202.9531,231,206.9531,231,223.2188,356,223.2188,356,192.9531,346,182.9531,231,182.9531" style="stroke: #A80036; stroke-width: 1.0;"/><line style="stroke: #A80036; stroke-width: 1.0;" x1="346" x2="346" y1="182.9531" y2="192.9531"/><line style="stroke: #A80036; stroke-width: 1.0;" x1="356" x2="346" y1="192.9531" y2="192.9531"/><text fill="#000000" font-family="sans-serif" font-size="13" lengthAdjust="spacingAndGlyphs" textLength="104" x="237" y="200.02">A[i]  == *(A + i)</text><text fill="#000000" font-family="sans-serif" font-size="13" lengthAdjust="spacingAndGlyphs" textLength="104" x="237" y="215.1528">&amp;A[i] == (A + i)</text><polygon fill="#FBFB77" points="391,190.4531,391,215.5859,626,215.5859,626,200.4531,616,190.4531,391,190.4531" style="stroke: #A80036; stroke-width: 1.0;"/><line style="stroke: #A80036; stroke-width: 1.0;" x1="616" x2="616" y1="190.4531" y2="200.4531"/><line style="stroke: #A80036; stroke-width: 1.0;" x1="626" x2="616" y1="200.4531" y2="200.4531"/><text fill="#000000" font-family="sans-serif" font-size="13" lengthAdjust="spacingAndGlyphs" textLength="214" x="397" y="207.52">p+1 jumps by sizeof(int)=4 bytes</text><path d="M296.5,76.9931 C296.5,110.9631 296.5,168.9531 296.5,168.9531 C296.5,168.9531 166,168.9531 166,168.9531 " fill="none" style="stroke: #A80036; stroke-width: 1.0;"/><polygon fill="#A80036" points="161,168.9531,170,172.9531,166,168.9531,170,164.9531,161,168.9531" style="stroke: #A80036; stroke-width: 1.0;"/><text fill="#000000" font-family="sans-serif" font-size="13" lengthAdjust="spacingAndGlyphs" textLength="87" x="241.5" y="120.02">points to A[0]</text><path d="M347.01,52.9531 C409.72,52.9531 508.5,52.9531 508.5,52.9531 C508.5,52.9531 508.5,154.3731 508.5,190.4231 " fill="none" style="stroke: #A80036; stroke-width: 1.0; stroke-dasharray: 7.0,7.0;"/></g></svg>